<svg xmlns="http://www.w3.org/2000/svg" viewBox="0 0 202.21 202.21"><defs><style>.cls-1{fill:#1ec580;}.cls-2{fill:#fff;}</style></defs><g id="Layer_2" data-name="Layer 2"><g id="Layer_1-2" data-name="Layer 1"><circle class="cls-1" cx="101.11" cy="101.11" r="101.11"/><path class="cls-2" d="M105.39,36.27A6.46,6.46,0,0,0,99,36.05C70.69,50.89,55.37,83.92,64.86,109.68c3.36,9.12,11.27,21.1,29.79,28.37v22.4a6.45,6.45,0,0,0,12.9,0v-22c6.77-3.21,22.09-12,29-28.49C147.08,84.86,134,53.87,105.39,36.27ZM124.65,105c-3.81,9.1-11.32,15.21-17.1,18.8V92.54a6.45,6.45,0,0,0-12.9,0v31.37C83.92,118.42,79.1,111,77,105.22c-6.11-16.6,1.77-42,24.8-55.92C122.74,63.74,132.33,86.65,124.65,105Z"/><circle class="cls-2" cx="127.28" cy="157.02" r="9.88"/></g></g></svg>