<svg xmlns="http://www.w3.org/2000/svg" viewBox="0 0 382.95 131.58"><defs><style>.cls-1{fill:#121212;}</style></defs><g id="Layer_2" data-name="Layer 2"><g id="Layer_1-2" data-name="Layer 1"><path class="cls-1" d="M135.22,26l-4.52,6.71a.51.51,0,0,1-.69.14A21.91,21.91,0,0,0,117,29c-7.93,0-15.6,7.33-15.6,15.92S109.07,60.8,117,60.8a21.59,21.59,0,0,0,11.47-2.95.52.52,0,0,0,.27-.44V51.27a.51.51,0,0,0-.5-.5h-5.45a.5.5,0,0,1-.5-.5V41.65a.51.51,0,0,1,.5-.5h14.59a.5.5,0,0,1,.5.5V62.23a.51.51,0,0,1-.19.39c-4.51,3.6-9.66,7.76-20.69,7.76-13.36,0-25.77-9.74-25.77-25.51S103.67,19.36,117,19.36a31.85,31.85,0,0,1,18.06,5.89A.51.51,0,0,1,135.22,26Z"/><path class="cls-1" d="M163.2,20.53c10.22,0,18.34,8.76,18.34,19.12a19.3,19.3,0,0,1-10.37,17.2.49.49,0,0,0-.13.8l10.86,10.7a.49.49,0,0,1-.35.85H169.8a.5.5,0,0,1-.35-.14L159.14,58.91a.47.47,0,0,0-.35-.15h-3a.51.51,0,0,0-.5.5V68.7a.5.5,0,0,1-.5.5h-8.87a.5.5,0,0,1-.5-.5V21a.5.5,0,0,1,.5-.5Zm-8,27.86a.5.5,0,0,0,.5.5h7.46c4.58,0,8.47-3.93,8.47-9.24s-3.89-9.25-8.47-9.25h-7.46a.5.5,0,0,0-.5.5Z"/><path class="cls-1" d="M221,21V30a.51.51,0,0,1-.5.5H199.3a.5.5,0,0,0-.5.5V39.8a.5.5,0,0,0,.5.5h20.4a.5.5,0,0,1,.5.5v8.14a.5.5,0,0,1-.5.5H199.3a.5.5,0,0,0-.5.5v8.83a.5.5,0,0,0,.5.5h21.23a.5.5,0,0,1,.5.5V68.7a.5.5,0,0,1-.5.5H189.37a.5.5,0,0,1-.5-.5V21a.5.5,0,0,1,.5-.5h31.16A.5.5,0,0,1,221,21Z"/><path class="cls-1" d="M260.67,21V30a.5.5,0,0,1-.5.5H239a.5.5,0,0,0-.5.5V39.8a.5.5,0,0,0,.5.5h20.4a.5.5,0,0,1,.5.5v8.14a.5.5,0,0,1-.5.5H239a.5.5,0,0,0-.5.5v8.83a.5.5,0,0,0,.5.5h21.22a.5.5,0,0,1,.5.5V68.7a.5.5,0,0,1-.5.5H229a.5.5,0,0,1-.5-.5V21a.5.5,0,0,1,.5-.5h31.15A.5.5,0,0,1,260.67,21Z"/><path class="cls-1" d="M277.19,20.73l21.36,28.12a.5.5,0,0,0,.9-.31V21a.5.5,0,0,1,.5-.5h8.93a.5.5,0,0,1,.5.5V68.7a.5.5,0,0,1-.5.5h-8.13a.49.49,0,0,1-.39-.19L279,40.89a.5.5,0,0,0-.9.3V68.7a.5.5,0,0,1-.5.5h-8.93a.5.5,0,0,1-.5-.5V21a.5.5,0,0,1,.5-.5h8.13A.47.47,0,0,1,277.19,20.73Z"/><path class="cls-1" d="M112.73,81.73c10.23,0,18.34,8.76,18.34,19.12S123,120,112.73,120h-7.46a.51.51,0,0,0-.5.5v9.44a.5.5,0,0,1-.5.5H95.4a.5.5,0,0,1-.5-.5V82.23a.5.5,0,0,1,.5-.5Zm-8,27.86a.5.5,0,0,0,.5.5h7.46c4.59,0,8.47-3.93,8.47-9.24s-3.88-9.25-8.47-9.25h-7.46a.5.5,0,0,0-.5.5Z"/><path class="cls-1" d="M147.79,82.23V120a.5.5,0,0,0,.5.5h21.1a.5.5,0,0,1,.5.5v8.94a.5.5,0,0,1-.5.5H138.06a.5.5,0,0,1-.5-.5V82.23a.5.5,0,0,1,.5-.5h9.23A.5.5,0,0,1,147.79,82.23Z"/><path class="cls-1" d="M205.77,82.06l17.37,47.67a.5.5,0,0,1-.47.67h-9.46a.49.49,0,0,1-.46-.32l-3.57-9.79a.5.5,0,0,0-.47-.33H192.07a.5.5,0,0,0-.47.33L188,130.08a.5.5,0,0,1-.47.32h-9.46a.5.5,0,0,1-.47-.67L195,82.06a.5.5,0,0,1,.47-.33h9.82A.5.5,0,0,1,205.77,82.06Zm-9.71,28h8.66a.5.5,0,0,0,.47-.68l-4.33-11.89a.5.5,0,0,0-.94,0l-4.33,11.89A.5.5,0,0,0,196.06,110Z"/><path class="cls-1" d="M238,81.93l21.36,28.12a.5.5,0,0,0,.9-.3V82.23a.5.5,0,0,1,.5-.5h8.93a.5.5,0,0,1,.5.5V129.9a.5.5,0,0,1-.5.5h-8.13a.5.5,0,0,1-.4-.19L239.8,102.09a.5.5,0,0,0-.9.3V129.9a.5.5,0,0,1-.5.5h-8.93a.5.5,0,0,1-.5-.5V82.23a.5.5,0,0,1,.5-.5h8.13A.49.49,0,0,1,238,81.93Z"/><path class="cls-1" d="M316.63,82.23v9a.5.5,0,0,1-.5.5H302.75a.5.5,0,0,0-.5.5V129.9a.5.5,0,0,1-.5.5h-9.23a.5.5,0,0,1-.5-.5V92.23a.51.51,0,0,0-.5-.5H278.14a.5.5,0,0,1-.5-.5v-9a.5.5,0,0,1,.5-.5h38A.5.5,0,0,1,316.63,82.23Z"/><path class="cls-1" d="M352.51,85.53l-5,7.23a.5.5,0,0,1-.67.15,15.38,15.38,0,0,0-7.95-2.45c-2.72,0-5.8,1.55-5.8,4.49s5.19,4.5,7.82,5.35c8.11,2.17,14.84,7.14,14.84,15.41v0c0,8-6.62,15.83-17.19,15.83-6.81,0-12.09-2.44-16.87-6a.5.5,0,0,1-.13-.66l4.57-7.74a.49.49,0,0,1,.72-.15c3.3,2.38,7.14,4.41,11.59,4.41,3.39,0,7.17-1.65,7.17-5.68,0-3.59-5.36-5.26-8.7-6.28C330,107.61,323,103.4,323,95c0-8,7.29-14.4,15.93-14.4,6.31,0,10.07,2.13,13.48,4.26A.5.5,0,0,1,352.51,85.53Z"/><path class="cls-1" d="M43.34,1A6.41,6.41,0,0,0,37,.74C8.64,15.58-6.68,48.61,2.81,74.36c3.36,9.12,11.27,21.1,29.79,28.38v22.39a6.45,6.45,0,0,0,12.9,0v-22c6.77-3.21,22.09-12,29-28.48C85,49.54,71.93,18.56,43.34,1ZM62.61,69.64c-3.82,9.1-11.33,15.21-17.11,18.8V57.23a6.45,6.45,0,0,0-12.9,0V88.6C21.87,83.11,17.05,75.69,14.92,69.9,8.8,53.31,16.68,27.87,39.72,14,60.69,28.43,70.29,51.34,62.61,69.64Z"/><circle class="cls-1" cx="373.06" cy="121.7" r="9.88"/></g></g></svg>